<?xml version="1.0" standalone="no"?>
<!DOCTYPE svg PUBLIC "-//W3C//DTD SVG 20010904//EN"
 "http://www.w3.org/TR/2001/REC-SVG-20010904/DTD/svg10.dtd">
<svg version="1.0" xmlns="http://www.w3.org/2000/svg"
 width="508.000000pt" height="508.000000pt" viewBox="0 0 508.000000 508.000000"
 preserveAspectRatio="xMidYMid meet">

<g transform="translate(0.000000,508.000000) scale(0.100000,-0.100000)"
fill="#000000" stroke="none">
<path d="M645 4566 c-101 -47 -156 -133 -156 -241 0 -34 6 -75 13 -91 26 -61
89 -133 136 -156 l47 -23 964 -3 964 -2 -919 -919 c-1189 -1189 -1159 -1158
-1185 -1217 -29 -69 -28 -148 4 -216 30 -65 96 -132 145 -150 29 -10 218 -13
917 -13 l880 0 3 268 2 267 -526 0 c-343 0 -525 3 -522 10 2 5 461 468 1021
1029 559 561 1017 1024 1017 1029 0 6 11 19 25 30 38 30 58 88 58 162 0 79
-17 115 -83 179 -90 88 27 81 -1450 81 l-1305 0 -50 -24z"/>
<path d="M509 3591 c-22 -18 -24 -26 -24 -121 0 -132 8 -140 132 -140 76 0 86
2 108 25 23 22 25 32 25 115 0 83 -2 93 -25 115 -22 23 -32 25 -108 25 -69 0
-89 -4 -108 -19z"/>
<path d="M509 2771 c-21 -17 -24 -29 -27 -103 -3 -73 -1 -86 18 -110 21 -27
25 -28 113 -28 51 0 97 4 103 8 24 15 34 54 34 125 0 60 -4 79 -21 101 -19 25
-25 26 -109 26 -72 0 -92 -4 -111 -19z"/>
<path d="M2227 2495 c-65 -61 -12 -125 103 -125 73 0 94 -9 88 -36 -3 -16 -14
-19 -69 -22 -50 -2 -69 1 -79 13 -13 16 -70 21 -70 7 0 -13 32 -47 57 -60 12
-7 53 -12 91 -12 88 0 122 22 122 79 0 58 -25 74 -123 81 -74 4 -82 7 -82 25
0 18 8 20 78 23 48 2 77 -1 77 -8 0 -5 11 -10 25 -10 31 0 33 22 5 50 -17 17
-33 20 -108 20 -80 0 -90 -2 -115 -25z"/>
<path d="M2530 2495 c0 -20 5 -25 25 -25 20 0 25 5 25 25 0 20 -5 25 -25 25
-20 0 -25 -5 -25 -25z"/>
<path d="M2640 2389 c0 -130 0 -130 23 -127 21 3 22 8 25 106 l3 103 77 -3 77
-3 3 -102 3 -103 29 0 30 0 0 104 c0 89 -3 107 -21 130 -20 25 -23 26 -135 26
l-114 0 0 -131z"/>
<path d="M2991 2501 c-25 -25 -35 -77 -29 -143 8 -77 36 -98 134 -98 70 0 78
2 105 29 16 16 29 34 29 40 0 16 -46 13 -60 -4 -9 -10 -32 -15 -76 -15 -74 0
-84 10 -84 84 0 74 3 76 86 76 43 0 74 -4 74 -10 0 -5 14 -10 30 -10 36 0 38
13 5 45 -22 23 -32 25 -110 25 -71 0 -88 -3 -104 -19z"/>
<path d="M3301 2494 c-17 -22 -21 -41 -21 -103 1 -111 23 -131 143 -131 60 0
79 4 101 21 32 25 35 59 5 59 -11 0 -27 -7 -35 -15 -23 -23 -140 -21 -152 3
-19 36 -5 42 110 42 l111 0 -6 58 c-9 82 -24 92 -142 92 -89 0 -95 -1 -114
-26z m199 -49 c0 -25 -1 -25 -79 -25 -81 0 -96 6 -85 34 5 13 22 16 85 16 78
0 79 0 79 -25z"/>
<path d="M3800 2390 l0 -130 25 0 25 0 0 130 0 130 -25 0 -25 0 0 -130z"/>
<path d="M3931 2494 c-28 -35 -26 -69 4 -99 22 -22 32 -25 105 -25 l81 0 -3
-27 c-3 -27 -5 -28 -69 -31 -50 -2 -69 1 -79 13 -15 18 -60 20 -60 3 0 -7 9
-24 20 -38 18 -24 24 -25 115 -25 126 0 135 9 135 129 0 73 -3 85 -23 104 -20
19 -35 22 -114 22 -87 0 -93 -1 -112 -26z m189 -49 c0 -24 -2 -25 -74 -25 -75
0 -93 8 -82 35 4 11 24 15 81 15 73 0 75 -1 75 -25z"/>
<path d="M4261 2494 c-12 -15 -21 -37 -21 -49 0 -12 9 -34 21 -49 19 -24 26
-26 105 -26 l85 0 -3 -27 c-3 -27 -5 -28 -76 -31 -58 -2 -73 0 -78 13 -8 20
-54 20 -54 0 0 -9 11 -27 25 -40 22 -22 32 -25 105 -25 73 0 83 3 105 25 23
22 25 32 25 108 0 74 -3 86 -23 105 -20 19 -35 22 -109 22 -82 0 -88 -2 -107
-26z m187 -51 c3 -22 0 -23 -72 -23 -75 0 -93 8 -82 36 4 12 21 14 78 12 67
-3 73 -5 76 -25z"/>
<path d="M4560 2390 l0 -130 25 0 25 0 0 130 0 130 -25 0 -25 0 0 -130z"/>
<path d="M3652 2448 c2 -17 10 -23 28 -23 18 0 26 6 28 23 3 19 -1 22 -28 22
-27 0 -31 -3 -28 -22z"/>
<path d="M2530 2350 c0 -89 0 -90 25 -90 25 0 25 1 25 90 0 89 0 90 -25 90
-25 0 -25 -1 -25 -90z"/>
<path d="M3652 2338 c2 -17 10 -23 28 -23 18 0 26 6 28 23 3 19 -1 22 -28 22
-27 0 -31 -3 -28 -22z"/>
<path d="M2640 1800 l0 -270 265 0 265 0 0 60 0 60 -215 0 -215 0 0 50 0 50
215 0 215 0 0 55 0 55 -215 0 -215 0 0 55 0 55 215 0 215 0 0 50 0 50 -265 0
-265 0 0 -270z"/>
<path d="M3350 1800 l0 -270 55 0 55 0 0 110 0 110 149 0 c183 0 181 2 181
-132 l0 -88 50 0 50 0 0 103 c0 82 -4 111 -19 141 -19 37 -19 38 1 72 39 66
12 151 -62 202 -32 21 -42 22 -246 22 l-214 0 0 -270z m415 146 c16 -16 23
-31 19 -43 -14 -38 -33 -43 -181 -43 l-143 0 0 55 0 55 140 0 c136 0 142 -1
165 -24z"/>
<path d="M4147 2040 c-68 -43 -77 -70 -77 -236 0 -122 2 -142 23 -182 17 -36
32 -50 72 -68 44 -21 65 -24 179 -24 157 0 200 15 237 83 20 37 24 59 27 182
3 130 2 143 -20 184 -41 80 -57 86 -236 89 l-157 3 -48 -31z m332 -87 c19 -17
21 -29 22 -147 1 -114 -1 -131 -17 -143 -12 -9 -56 -13 -145 -13 -162 0 -159
-3 -159 160 0 117 6 141 40 153 8 3 65 6 126 6 93 1 115 -2 133 -16z"/>
<path d="M482 908 l3 -443 87 -3 88 -3 2 178 3 178 265 5 265 5 47 28 c190
111 168 397 -36 482 -29 12 -98 15 -381 15 l-345 0 2 -442z m694 239 c33 -39
31 -81 -5 -118 l-29 -29 -241 0 -241 0 0 90 0 91 246 -3 246 -3 24 -28z"/>
<path d="M1725 1331 c-57 -26 -133 -103 -158 -159 -8 -18 -13 -137 -15 -369
l-3 -343 95 0 96 0 2 177 3 178 265 0 265 0 3 -177 2 -178 91 0 90 0 -3 343
c-3 324 -4 344 -24 388 -27 57 -84 115 -138 140 -37 17 -68 19 -286 18 -213 0
-250 -3 -285 -18z m531 -184 c20 -23 24 -39 24 -88 l0 -59 -270 0 -270 0 0 53
c0 28 6 63 13 77 24 47 46 51 270 48 l209 -3 24 -28z"/>
<path d="M2794 1330 c-54 -24 -111 -82 -135 -137 -17 -40 -19 -71 -19 -289 0
-239 1 -246 24 -293 14 -26 42 -63 62 -81 74 -65 73 -65 462 -68 l352 -3 0
270 0 271 -95 0 -95 0 0 -180 0 -180 -232 0 c-128 0 -243 3 -256 6 -45 13 -52
47 -52 268 0 202 0 205 24 233 l24 28 341 3 341 3 0 84 0 85 -352 -1 c-320 0
-357 -2 -394 -19z"/>
<path d="M3719 1346 c-2 -2 -4 -202 -3 -443 l1 -438 447 -3 447 -2 -3 87 -3
88 -358 3 -358 2 3 88 3 87 358 3 357 2 0 90 0 90 -360 0 -360 0 0 90 0 90
360 0 360 0 0 85 0 85 -443 0 c-244 0 -446 -2 -448 -4z"/>
</g>
</svg>
